<?xml version="1.0" encoding="UTF-8"?><svg id="Layer_2" xmlns="http://www.w3.org/2000/svg" xmlns:xlink="http://www.w3.org/1999/xlink" viewBox="0 0 1641.95842 220.21829"><defs><style>.cls-1{fill:url(#linear-gradient-2);}.cls-2{fill:url(#linear-gradient-17);}.cls-3{fill:url(#linear-gradient-15);}.cls-4{fill:url(#linear-gradient-18);}.cls-5{fill:url(#linear-gradient-14);}.cls-6{fill:url(#linear-gradient-20);}.cls-7{fill:url(#linear-gradient-6);}.cls-8{fill:url(#linear-gradient-11);}.cls-9{fill:url(#linear-gradient-10);}.cls-10{fill:url(#linear-gradient-16);}.cls-11{fill:url(#linear-gradient-5);}.cls-12{fill:url(#linear-gradient-7);}.cls-13{fill:url(#linear-gradient-9);}.cls-14{fill:url(#linear-gradient-3);}.cls-15{fill:url(#linear-gradient);}.cls-16{fill:url(#linear-gradient-19);}.cls-17{fill:url(#linear-gradient-4);}.cls-18{fill:url(#linear-gradient-8);}.cls-19{fill:url(#linear-gradient-12);}.cls-20{fill:url(#linear-gradient-13);}</style><linearGradient id="linear-gradient" x1="164.74175" y1="506.02534" x2="6.44696" y2="506.02534" gradientTransform="translate(0 526.65383) scale(1 -1)" gradientUnits="userSpaceOnUse"><stop offset="0" stop-color="#e5221d"/><stop offset="1" stop-color="#645251"/></linearGradient><linearGradient id="linear-gradient-2" x1="164.7406" y1="416.84154" x2="6.44811" y2="416.84154" xlink:href="#linear-gradient"/><linearGradient id="linear-gradient-3" x1="44.40965" y1="417.02928" x2="0" y2="417.02928" gradientTransform="translate(0 526.65383) scale(1 -1)" gradientUnits="userSpaceOnUse"><stop offset="0" stop-color="#e5221d"/><stop offset="1" stop-color="#aa4f4e"/></linearGradient><linearGradient id="linear-gradient-4" x1="1082.46317" x2="924.16838" xlink:href="#linear-gradient"/><linearGradient id="linear-gradient-5" x1="1082.46317" y1="327.064" x2="917.72142" y2="327.064" xlink:href="#linear-gradient"/><linearGradient id="linear-gradient-6" x1="1324.75166" y1="108.56836" x2="1140.89523" y2="108.56836" gradientTransform="matrix(1, 0, 0, 1, 0, 0)" xlink:href="#linear-gradient"/><linearGradient id="linear-gradient-7" x1="1082.46202" y1="416.84154" x2="924.16952" y2="416.84154" xlink:href="#linear-gradient"/><linearGradient id="linear-gradient-8" x1="962.13106" y1="417.02928" x2="917.72142" y2="417.02928" xlink:href="#linear-gradient-3"/><linearGradient id="linear-gradient-9" x1="1185.30503" y1="417.02928" x2="1140.89539" y2="417.02928" xlink:href="#linear-gradient-3"/><linearGradient id="linear-gradient-10" x1="881.45757" y1="462.11961" x2="837.04792" y2="462.11961" xlink:href="#linear-gradient-3"/><linearGradient id="linear-gradient-11" x1="881.45871" y1="505.98952" x2="723.16392" y2="505.98952" xlink:href="#linear-gradient"/><linearGradient id="linear-gradient-12" x1="881.45757" y1="416.84154" x2="723.16507" y2="416.84154" xlink:href="#linear-gradient"/><linearGradient id="linear-gradient-13" x1="767.57357" y1="417.02928" x2="723.16392" y2="417.02928" xlink:href="#linear-gradient-3"/><linearGradient id="linear-gradient-14" x1="983.02204" y1="833.49479" x2="920.20581" y2="833.49479" gradientTransform="translate(497.22182 1368.50584) rotate(-45) scale(1 -1)" xlink:href="#linear-gradient-3"/><linearGradient id="linear-gradient-15" x1="1899.38578" y1="608.26153" x2="1836.56954" y2="608.26153" gradientTransform="translate(2332.3182 998.69117) rotate(-135) scale(1 -1)" xlink:href="#linear-gradient-3"/><linearGradient id="linear-gradient-16" x1="375.83735" y1="327.064" x2="217.54486" y2="327.064" xlink:href="#linear-gradient"/><linearGradient id="linear-gradient-17" x1="252.77402" y1="-58.48165" x2="208.36437" y2="-58.48165" gradientTransform="translate(0 168.10619)" xlink:href="#linear-gradient-3"/><linearGradient id="linear-gradient-18" x1="455.15404" y1="-58.48165" x2="410.74439" y2="-58.48165" gradientTransform="translate(0 168.10619)" xlink:href="#linear-gradient-3"/><linearGradient id="linear-gradient-19" x1="1408.29863" y1="-58.48165" x2="1363.88899" y2="-58.48165" gradientTransform="translate(0 168.10619)" xlink:href="#linear-gradient-3"/><linearGradient id="linear-gradient-20" x1="1539.73438" y1="47.51488" x2="1545.19861" y2="267.24969" gradientTransform="matrix(1, 0, 0, 1, 0, 0)" xlink:href="#linear-gradient"/></defs><g id="Layer_2-2"><g id="Layer_1-2"><g><polygon class="cls-15" points="164.74175 41.25696 6.44696 41.25696 6.44696 .00003 164.74175 .00003 162.03586 20.62849 164.74175 41.25696"/><polygon class="cls-1" points="164.7406 129.15147 6.44811 129.15147 6.44811 90.4731 164.7406 90.4731 161.35828 109.81228 164.7406 129.15147"/><path class="cls-14" d="M44.40963,219.21325l-16.81375-2.72124c-3.57082-.57791-7.21133-.57791-10.78214,0l-16.81375,2.72124V.03584H44.40965V219.21325h-.00001Z"/><polygon class="cls-17" points="1082.46317 41.25696 924.16838 41.25696 924.16838 .00003 1082.46317 .00003 1079.75728 20.62849 1082.46317 41.25696"/><polygon class="cls-11" points="1082.46317 220.21829 917.72142 220.21829 917.72142 178.96137 1082.46317 178.96137 1079.64707 199.58983 1082.46317 220.21829"/><path class="cls-7" d="M1311.23445,145.04489l-62.22981,71.82193-.07994-.09234h0c.01719,.19469-.13621,.36224-.33166,.36224h-107.36486c-.18388,0-.33295-.14907-.33295-.33295v-40.58981c0-.18388,.14907-.33295,.33295-.33295h62.17912c11.62495,0,22.67713-5.04756,30.28958-13.83335l40.59315-46.84987c3.18015-3.67029,3.18015-9.11979,0-12.79186l-47.87068-55.24903c-3.24644-3.74681-7.95978-5.89941-12.9174-5.89941h-72.27377c-.18388,0-.33295-.14907-.33295-.33295V.33295c0-.18388,.14907-.33295,.33295-.33295h107.36457c.19555,0,.34899,.16772,.33164,.3625l-.01022,.11466c-.00802,.08996,.02086,.17932,.08,.24757l62.24027,71.83411c18.02296,20.80187,18.02296,51.68594,0,72.48604Z"/><polygon class="cls-12" points="1082.46202 129.15147 924.16952 129.15147 924.16952 90.4731 1082.46202 90.4731 1079.0797 109.81228 1082.46202 129.15147"/><path class="cls-18" d="M962.13105,219.21325l-16.81375-2.72124c-3.57082-.57791-7.21133-.57791-10.78214,0l-16.81375,2.72124V.03584h44.40965V219.21325h-.00001Z"/><path class="cls-13" d="M1185.30502,219.21325l-16.81375-2.72124c-3.57082-.57791-7.21133-.57791-10.78214,0l-16.81375,2.72124V.03584h44.40965V219.21325h-.00001Z"/><path class="cls-9" d="M881.45755,129.0326l-16.81375-1.60158c-3.57082-.34013-7.21133-.34013-10.78214,0l-16.81375,1.60158V.03584h44.40965V129.0326h-.00001Z"/><polygon class="cls-8" points="881.45871 41.29277 723.16392 41.29277 723.16392 .03584 881.45871 .03584 878.75283 20.66431 881.45871 41.29277"/><polygon class="cls-19" points="881.45757 129.15147 723.16507 129.15147 723.16507 90.4731 881.45757 90.4731 878.07525 109.81228 881.45757 129.15147"/><path class="cls-20" d="M767.57356,219.21325l-16.81375-2.72124c-3.57082-.57791-7.21133-.57791-10.78214,0l-16.81375,2.72124V.03584h44.40965V219.21325h-.00001Z"/><path class="cls-5" d="M673.93674,176.66281l-13.81332,11.35663c-2.9336,2.41187-5.50783,5.34563-7.62413,8.68893l-9.96491,15.74252L487.55256,35.82393,518.95492,.03584l154.98183,176.62696h0Z"/><path class="cls-3" d="M643.14241,1.72984l9.96491,15.74252c2.1163,3.34331,4.69053,6.27706,7.62413,8.68893l13.81332,11.35663-154.98183,176.62696-31.40236-35.78809L643.1424,1.72983h0Z"/><polygon class="cls-10" points="375.83735 218.92902 217.54486 218.92902 217.54486 180.25065 375.83735 180.25065 372.45503 199.58983 375.83735 218.92902"/><path class="cls-2" d="M252.77402,.03584V219.21325h-44.40965V.03584l16.81375,2.72124c3.57081,.57791,7.21133,.57791,10.78214,0L252.77401,.03584h.00001Z"/><path class="cls-4" d="M455.15404,.03584V219.21325h-44.40965V.03584l16.81375,2.72124c3.57081,.57791,7.21133,.57791,10.78214,0L455.15402,.03584h.00001Z"/><path class="cls-16" d="M1408.29863,.03584V219.21325h-44.40965V.03584l16.81375,2.72124c3.57081,.57791,7.21133,.57791,10.78214,0L1408.29862,.03584h.00001Z"/><polygon class="cls-6" points="1641.95842 219.21246 1590.59205 219.21246 1535.3637 76.73165 1495.46985 219.21246 1446.04969 219.21246 1494.12753 47.49007 1503.54209 13.86615 1506.66727 2.70611 1558.03528 2.70611 1575.39419 47.49007 1641.95842 219.21246"/></g></g></g></svg>