<?xml version="1.0" encoding="UTF-8"?><svg id="Layer_2" xmlns="http://www.w3.org/2000/svg" viewBox="0 0 396.34668 118.70068"><defs><style>.cls-1{fill:#e50914;}</style></defs><g id="Layer_1-2"><g><path class="cls-1" d="M43.71237,17.96039c.56656,5.21729,.84985,7.82587,1.41641,13.04315-10.69647,1.57178-16.03946,2.42661-26.71158,4.27411,1.33087,10.40244,1.99634,15.60367,3.32721,26.00604,8.84045-1.53043,13.2655-2.24744,22.12317-3.58508,.58475,5.23914,.87711,7.85873,1.46185,13.0979-8.7738,1.32495-13.15692,2.03519-21.9136,3.55112,1.52631,11.92978,3.05261,23.85956,4.57886,35.78934-4.27164,.7395-6.4064,1.12091-10.67346,1.9071-3.98199-29.24567-7.96414-58.49133-11.94614-87.737,12.73935-2.34711,25.52115-4.46338,38.33728-6.34668Z"/><path class="cls-1" d="M66.98337,90.44815c9.25076-1.21652,13.88031-1.77103,23.14536-2.7724,.43387,5.43185,.65082,8.14777,1.08469,13.57962-11.20764,1.27817-22.3689,2.67596-33.54568,4.20081-3.09366-29.39069-6.18741-58.7814-9.28107-88.17212,4.53214-.64551,6.79919-.95599,11.33505-1.55252,2.4205,24.90555,4.84109,49.81107,7.26166,74.71661Z"/><path class="cls-1" d="M106.62531,99.71048c-4.28085,.39557-6.42068,.60495-10.69901,1.04681-2.25125-29.49423-4.50259-58.98843-6.75388-88.48267,4.56094-.47107,6.8421-.69424,11.40573-1.11597,2.01569,29.51727,4.03146,59.03455,6.04715,88.55182Z"/><path class="cls-1" d="M126.96982,52.25076c-7.03873-13.9386-14.29602-27.76764-21.70041-41.51511,4.53079-.39841,6.79681-.58548,11.32983-.93524,.78879-.06088,1.36832,.04935,1.73816,.32907,.36887,.27982,.71408,.75739,1.03381,1.43063,5.22461,10.49469,10.35052,21.03848,15.37689,31.62958,.11322-.53961,.24121-1.07007,.38351-1.59238,.14233-.52075,.31177-1.05417,.50894-1.59921,3.71317-9.97733,7.52042-19.92584,11.41693-29.83301,.56567-1.54324,1.34369-2.33936,2.3317-2.38489,4.3685-.20132,6.55304-.29071,10.92258-.44693-6.20444,14.34723-12.18976,28.78995-18.02139,43.29236,7.15506,15.0686,14.14307,30.21912,20.88336,45.47818-4.27353,.15054-6.41003,.2373-10.68253,.43384-.71481,.03287-1.30008-.2251-1.75763-.77777-.45706-.55164-.84497-1.18958-1.16354-1.91196-4.8569-11.12872-9.82056-22.21088-14.88998-33.24442-.08649,.49744-.18729,.96518-.30338,1.40335-.11609,.43762-.23297,.84525-.35165,1.22192-3.83008,10.74542-7.59488,21.50439-11.29993,32.29358-.25311,.71796-.57416,1.3884-.96371,2.01373s-.90109,.96161-1.5358,1.01151c-3.99802,.31427-5.99658,.48151-9.99274,.83612,5.38177-15.77942,10.93616-31.50235,16.73697-47.13297Z"/><path class="cls-1" d="M176.01682,64.45966c.16779,10.4212,.33557,20.84244,.50339,31.26367-4.27444,.09314-6.4115,.15118-10.68524,.29031-.71194-29.59869-1.42392-59.19736-2.13589-88.79602,7.97742-.2597,11.96692-.35196,19.94626-.4614,4.09357-.05612,7.64465,.61542,10.63635,1.99615,2.99188,1.38083,5.45654,3.33118,7.3873,5.83475,1.93134,2.50433,3.34619,5.505,4.24786,8.99185,.90186,3.48758,1.33374,7.30157,1.3071,11.43707-.02771,4.30035-.53677,8.23804-1.51706,11.81412-.98074,3.57715-2.43033,6.64893-4.34439,9.22293-1.91455,2.57401-4.2933,4.57858-7.13937,6.02313-2.84607,1.44507-6.17322,2.18524-9.99463,2.23764-3.28479,.04504-4.92715,.07422-8.21167,.14578Zm-.2077-12.89807c3.31534-.07224,4.97311-.10165,8.2887-.14713,2.0238-.02777,3.7847-.42416,5.28625-1.19537,1.50064-.77017,2.74274-1.86353,3.72525-3.28131,.98297-1.41779,1.72098-3.14008,2.21271-5.16895,.4913-2.02838,.73691-4.2912,.73315-6.79004-.00357-2.37457-.25607-4.52438-.7601-6.44833-.50449-1.92294-1.26089-3.55945-2.27045-4.90582-1.00906-1.34637-2.28635-2.37341-3.82809-3.07663-1.54211-.70337-3.35147-1.04294-5.42175-1.01453-3.39169,.04651-5.08749,.0766-8.47894,.15051,.17111,10.62585,.34219,21.25174,.51328,31.87759Z"/><path class="cls-1" d="M250.6394,7.95627c-.19244,5.25397-.28864,7.88089-.48114,13.13486-10.75293-.53299-16.13159-.73053-26.8902-.98776-.17413,9.85156-.26117,14.77734-.43524,24.62894,8.32904,.19913,12.49316,.34073,20.81903,.70807-.16571,5.08295-.2486,7.62442-.41437,12.70737-8.24994-.36395-12.37622-.5043-20.62933-.7016-.17761,10.04807-.26636,15.07211-.44391,25.12018,10.2854,.24591,15.42755,.43475,25.70758,.94424-.19336,5.27835-.28998,7.91754-.48334,13.19589-12.06647-.59805-24.14374-.97623-36.22397-1.13412,.2861-29.6084,.57224-59.2168,.85831-88.8252,12.87817,.16837,25.75317,.57156,38.61658,1.20914Z"/><path class="cls-1" d="M307.07013,56.85928c-.51044,6.48462-1.70172,12.36279-3.54626,17.6376-1.84503,5.27615-4.19391,9.7421-7.03839,13.40759-2.84454,3.66605-6.12177,6.41534-9.84174,8.26117-3.71814,1.84598-7.73297,2.59558-12.07001,2.26144-8.7583-.67474-13.13971-.96375-21.90503-1.44489,1.19989-29.5773,2.39984-59.1546,3.59973-88.73193,9.3443,.51297,14.01501,.82104,23.35175,1.54037,4.62354,.3562,8.77362,1.80505,12.42383,4.32681,3.65204,2.52298,6.67877,5.87347,9.07593,10.03345,2.39703,4.16156,4.11487,9.0369,5.1601,14.61353,1.04529,5.57712,1.30054,11.61023,.7901,18.09485Zm-11.25537-1.13641c.34253-4.85709,.21326-9.25647-.40082-13.19711s-1.64709-7.3252-3.10541-10.14651c-1.45862-2.8219-3.32361-5.05194-5.58948-6.68121-2.26526-1.62885-4.88519-2.56128-7.8457-2.78937-4.70929-.36282-7.06451-.53098-11.77588-.84082-1.01147,20.81265-2.02295,41.62534-3.03442,62.43799,4.50397,.29617,6.75549,.45694,11.25745,.80377,2.8302,.21805,5.41449-.28873,7.76288-1.52762,2.34839-1.23785,4.40198-3.11993,6.1662-5.65158,1.76233-2.53024,3.21118-5.68271,4.34546-9.45877s1.87714-8.09061,2.21973-12.94876Z"/><path class="cls-1" d="M319.97723,102.97208c-4.27301-.52661-6.41034-.77835-10.68634-1.25864,2.44647-29.47311,4.89307-58.94623,7.33966-88.41934,4.55841,.51202,6.83698,.7804,11.39221,1.3418-2.68188,29.44537-5.36377,58.89078-8.04553,88.33618Z"/><path class="cls-1" d="M379.02545,112.04407c-3.27509-.60339-4.91327-.89825-8.1911-1.47412-.91949-.16156-1.62848-.64703-2.13-1.45813-.50067-.81085-.81616-1.76593-.94501-2.8656-.7959-7.46466-1.20551-11.19711-2.04803-18.66208-9.59967-1.6088-14.40509-2.35529-24.02466-3.73245-2.49585,6.94632-3.73248,10.423-6.18286,17.38327-.30798,.90662-.81097,1.70343-1.50885,2.3902-.698,.68781-1.49481,.97018-2.39038,.84912-3.30493-.44669-4.95801-.66309-8.26495-1.08203,10.3241-28.49393,21.05353-56.81827,32.19916-85.00101,4.63049,.69345,6.94476,1.05298,11.57092,1.79761,4.39563,30.56815,8.36725,61.17722,11.91577,91.85522Zm-33.31982-39.37332c7.46515,1.08966,11.19507,1.6691,18.64832,2.89716-1.17902-10.14874-2.41455-20.29294-3.70605-30.42801-.17938-1.35046-.36731-2.94022-.56299-4.76849-.19659-1.8284-.37054-3.80765-.52106-5.93872-.62695,2.01031-1.22723,3.87991-1.8042,5.60831-.57709,1.72943-1.11963,3.23596-1.62927,4.5209-3.52905,9.34866-7.00446,18.71985-10.42474,28.10886Z"/></g></g></svg>